<svg width="482" height="436" viewBox="0 0 482 436" fill="none" xmlns="http://www.w3.org/2000/svg">
<path opacity="0.18" d="M481.14 304.63C481.06 320.32 475.41 335.49 468.09 349.41C452.6 378.72 427.72 403.81 398.41 418.81L401.47 418.12C353.51 453.5 270.83 424.06 211.34 427.4C177.38 429.31 143.42 433.99 109.49 431.76C75.56 429.53 58.49 445.35 33.78 421.97C1.53997 391.42 -6.64002 341.8 6.57998 299.18C9.82998 288.59 14.45 278.47 20.33 269.09C24.92 261.91 30.01 255.07 35.57 248.62C58.77 221.39 88.4 199.08 106.74 168.28C125.41 136.92 130.91 99.1 149.54 67.71C188.02 2.87999 271.76 -18.48 336.59 20C344.54 24.72 351.98 30.23 358.82 36.45C369.25 45.96 378.2 57.14 383.22 70.27C388.61 84.34 389.17 99.76 393.57 114.16C399.97 135.14 414.12 152.71 425.94 171.2C442.16 196.57 454.29 224.3 466.36 251.89C473.73 268.73 481.24 286.22 481.15 304.64L481.14 304.63Z" fill="#0EA5E9"/>
<path opacity="0.42" d="M378.11 114.06L356.45 177.83L339.82 176.74L346.54 140.71L189.11 254.51L137.66 206.53L6.57996 299.18C9.82996 288.59 14.45 278.47 20.33 269.09C24.92 261.91 30.01 255.07 35.57 248.62L139.62 177.84L192.58 224.31L335.24 127.07L299.57 118.64L298.87 99.7L378.11 114.07V114.06Z" fill="#0EA5E9"/>
<path d="M422.61 276.56C423.11 274.14 423.97 271.81 425.17 269.65C425.75 268.68 426.48 267.82 427.35 267.09C428.62 266.1 430.45 266.33 431.44 267.6C431.67 267.89 431.84 268.23 431.94 268.58C433.1 273.06 432.73 277.92 432.32 282.58C432.28 284.08 431.97 285.57 431.41 286.97C429.68 290.63 423.31 292.27 420.85 288.33C419.02 285.3 421.84 279.58 422.6 276.56H422.61Z" fill="#FFAA71"/>
<path d="M215.4 398.44C214.29 401.7 213.26 405.43 214.91 408.45C216.01 410.13 217.5 411.53 219.25 412.53L234.99 423.21C238.01 425.26 241.21 427.38 244.84 427.65C248.47 427.92 252.58 425.62 252.89 421.98C253.25 417.78 248.86 414.93 246.81 411.26C244.11 406.44 245.59 400.47 247 395.15C250.53 381.7 253.1 368.02 254.68 354.21C251.46 352.93 242.06 346.98 238.78 347.95C234.94 349.08 231.61 359.62 229.94 363.05C224.27 374.49 219.41 386.32 215.4 398.44Z" fill="#FFAA71"/>
<path d="M280.95 136.28C284.33 134.27 287.8 132.24 291.65 131.48C295.5 130.73 299.9 131.48 302.54 134.4C295.94 134.78 289.85 138.06 285.91 143.36C285.71 143.7 285.4 143.96 285.03 144.1C284.72 144.13 284.4 144.08 284.12 143.93C282.53 143.33 275.92 142.65 275.23 141.29C274.21 139.04 279.47 137.16 280.96 136.27L280.95 136.28Z" fill="black"/>
<path d="M252.8 208.24C254.08 227.13 257.18 246.27 253.47 264.83C250.97 277.34 245.41 289.93 248.17 302.38C251.2 316.1 265.37 326.4 279.34 325.05C288.19 324.19 296.11 319.39 304.58 316.68C311.7 314.4 319.22 313.6 326.66 314.34C333.33 315.01 340.54 316.78 346.35 313.46C351.19 310.7 353.67 304.93 353.92 299.39C354.18 293.85 352.64 288.37 350.96 283.04C347.65 272.1 344.15 260.93 344.56 249.5C344.89 241.3 347.26 233.34 348.94 225.3C351.96 210.89 352.78 195.55 347.57 181.8C342.36 168.05 330.41 156.21 315.8 154.35C308.28 153.43 300.61 155.14 293.11 154.08C286.49 153.15 280.32 150.09 273.8 148.76C271.53 148.17 269.15 148.19 266.89 148.82C259.03 151.55 255.3 168.54 253.94 175.55C251.85 186.26 251.96 197.34 252.78 208.23L252.8 208.24Z" fill="#C14834"/>
<path d="M245.58 308.25C241.51 319.84 237.17 331.47 230.64 341.89C230.16 342.41 230.2 343.22 230.72 343.7C230.78 343.76 230.85 343.81 230.92 343.85C237.5 349.61 244.6 355.61 253.25 356.85C253.81 356.98 254.4 356.93 254.94 356.71C255.44 356.36 255.81 355.85 256 355.26C261.51 342.47 263.45 328.48 263.28 314.64C263.16 307.73 262.61 300.83 261.64 293.99C261.41 292.31 261.28 284.93 259.84 284.07C257.63 282.79 255.21 287.29 254.26 288.73C250.26 294.64 247.94 301.51 245.58 308.26V308.25Z" fill="#0EA5E9"/>
<path d="M245.58 308.25C241.51 319.84 237.17 331.47 230.64 341.89C230.16 342.41 230.2 343.22 230.72 343.7C230.78 343.76 230.85 343.81 230.92 343.85C237.5 349.61 244.6 355.61 253.25 356.85C253.81 356.98 254.4 356.93 254.94 356.71C255.44 356.36 255.81 355.85 256 355.26C261.51 342.47 263.45 328.48 263.28 314.64C263.16 307.73 262.61 300.83 261.64 293.99C261.41 292.31 261.28 284.93 259.84 284.07C257.63 282.79 255.21 287.29 254.26 288.73C250.26 294.64 247.94 301.51 245.58 308.26V308.25Z" fill="url(#paint0_linear_4_2)"/>
<path d="M263.19 208.24C264.11 227.13 266.27 246.27 263.66 264.83C261.89 277.34 257.97 289.93 259.91 302.38C262.06 316.1 272.04 326.4 281.89 325.05C288.12 324.19 293.7 319.39 299.68 316.68C304.54 314.42 309.94 313.61 315.25 314.34C319.95 315.01 325.03 316.78 329.12 313.46C332.52 310.7 334.24 304.93 334.47 299.39C334.44 293.87 333.74 288.38 332.38 283.04C330.04 272.1 327.57 260.93 327.9 249.5C328.13 241.3 329.79 233.34 330.98 225.3C333.1 210.89 333.65 195.55 330.02 181.8C326.39 168.05 317.92 156.21 307.62 154.35C302.34 153.43 296.92 155.14 291.64 154.08C286.98 153.15 282.68 150.09 278.03 148.76C276.46 148.17 274.72 148.19 273.17 148.82C267.63 151.55 265.01 168.54 264.05 175.55C262.77 186.39 262.48 197.33 263.19 208.23V208.24Z" fill="url(#paint1_linear_4_2)"/>
<path d="M307.3 271.21C315.71 270.73 324.15 271.55 332.31 273.64C340.41 275.93 348.1 280.23 353.41 286.75C359.3 293.98 361.87 303.38 362.47 312.72C363.07 322.06 361.83 331.32 360.9 340.6C358.71 362.32 358.14 384.18 359.17 405.98C359.43 411.2 359.52 417.1 355.84 420.82C353.52 423.17 350.16 424.12 346.95 424.89C320.39 431.29 291.6 432.4 266.44 421.74C260.04 419.03 253.65 415.25 250.48 409.09C247.05 402.39 248.16 394.38 249.26 386.93C252.62 364.21 255.04 341.37 256.51 318.43C257.16 308.27 256.41 297.32 258.49 287.34C260 280.11 264.67 278.13 271.4 276.36C283.13 273.3 295.16 271.57 307.28 271.2L307.3 271.21Z" fill="#0EA5E9"/>
<path d="M307.3 271.21C315.71 270.73 324.15 271.55 332.31 273.64C340.41 275.93 348.1 280.23 353.41 286.75C359.3 293.98 361.87 303.38 362.47 312.72C363.07 322.06 361.83 331.32 360.9 340.6C358.71 362.32 358.14 384.18 359.17 405.98C359.43 411.2 359.52 417.1 355.84 420.82C353.52 423.17 350.16 424.12 346.95 424.89C320.39 431.29 291.6 432.4 266.44 421.74C260.04 419.03 253.65 415.25 250.48 409.09C247.05 402.39 248.16 394.38 249.26 386.93C252.62 364.21 255.04 341.37 256.51 318.43C257.16 308.27 256.41 297.32 258.49 287.34C260 280.11 264.67 278.13 271.4 276.36C283.13 273.3 295.16 271.57 307.28 271.2L307.3 271.21Z" fill="url(#paint2_linear_4_2)"/>
<path d="M332.32 309.12C332.32 309.12 340.74 371.48 337.17 390.37C333.59 409.27 278.04 418.41 278.04 418.41C278.04 418.41 329.43 429.05 338.36 426.76C347.29 424.46 359.47 420.74 359.24 411.37C359.01 402.01 349.97 327.89 349.97 327.89L332.33 309.12H332.32Z" fill="url(#paint3_linear_4_2)"/>
<path d="M282.8 275.38C283.18 273.5 283.67 271.65 284.26 269.83C285.54 265.62 287.14 261.51 286.97 257.04C286.97 256.12 286.89 255.17 286.88 254.24C286.81 252.55 287.06 250.87 287.63 249.28C288.56 247.23 290.01 245.46 291.85 244.16C295.92 241.01 307.79 235.11 310.13 242.88C310.5 244.25 310.68 245.66 310.65 247.08V247.34C310.65 249.41 310.38 251.54 310.36 253.48C310.1 258.36 310.98 263.23 312.92 267.72C316.36 274.89 276.97 306.91 282.79 275.4L282.8 275.38Z" fill="#FFAA71"/>
<path d="M310.78 247.11L310.66 247.39C309.44 250.17 299.45 272.26 285.89 271.7C285.89 271.7 284.85 271.79 284.25 269.84C285.53 265.63 287.13 261.52 286.96 257.05C286.96 256.13 286.88 255.18 286.87 254.25L310.66 247.14L310.78 247.11Z" fill="url(#paint4_linear_4_2)"/>
<path d="M253.69 225.58C260.754 225.58 266.48 218.515 266.48 209.8C266.48 201.085 260.754 194.02 253.69 194.02C246.626 194.02 240.9 201.085 240.9 209.8C240.9 218.515 246.626 225.58 253.69 225.58Z" fill="#0EA5E9"/>
<path d="M253.69 225.58C260.754 225.58 266.48 218.515 266.48 209.8C266.48 201.085 260.754 194.02 253.69 194.02C246.626 194.02 240.9 201.085 240.9 209.8C240.9 218.515 246.626 225.58 253.69 225.58Z" fill="url(#paint5_linear_4_2)"/>
<path d="M258.59 225.58C265.654 225.58 271.38 218.515 271.38 209.8C271.38 201.085 265.654 194.02 258.59 194.02C251.526 194.02 245.8 201.085 245.8 209.8C245.8 218.515 251.526 225.58 258.59 225.58Z" fill="#0EA5E9"/>
<path d="M258.59 225.58C265.654 225.58 271.38 218.515 271.38 209.8C271.38 201.085 265.654 194.02 258.59 194.02C251.526 194.02 245.8 201.085 245.8 209.8C245.8 218.515 251.526 225.58 258.59 225.58Z" fill="url(#paint6_linear_4_2)"/>
<path d="M255.26 177.74L258.46 235.32C258.46 235.32 259.89 257.44 281.81 257.66C308.14 257.92 316.16 242.6 320.19 230.94C324.22 219.28 327.87 185.07 320.19 175.6C312.51 166.13 269.68 143.91 255.26 177.74Z" fill="#FFAA71"/>
<path d="M250.57 149.76C242.68 158.47 239.91 171 241.1 182.71C241.15 184.98 241.89 187.19 243.22 189.03C244.84 190.59 246.85 191.69 249.04 192.19C252.78 193.47 256.72 194.65 260.56 193.92C264.4 193.19 268.08 189.75 267.58 185.85C266.44 188.09 267.71 190.97 269.73 192.43C271.88 193.75 274.31 194.55 276.82 194.76L289.72 196.86L291.97 188.16C291.17 194.12 295.34 199.6 301.3 200.41C303.7 200.73 306.15 200.25 308.24 199.03C308.98 201.59 312.17 202.77 314.8 202.31C317.44 201.85 319.71 200.22 322.03 198.88C328.65 195 336.31 193.27 343.95 193.93C346.65 176.02 334.9 156.97 317.66 151.36C313.41 149.98 308.97 149.35 304.62 148.35C286.07 144.09 266.53 132.15 250.56 149.78L250.57 149.76Z" fill="#C14834"/>
<path d="M332.26 225.58C339.324 225.58 345.05 218.515 345.05 209.8C345.05 201.085 339.324 194.02 332.26 194.02C325.196 194.02 319.47 201.085 319.47 209.8C319.47 218.515 325.196 225.58 332.26 225.58Z" fill="#0EA5E9"/>
<path d="M332.26 225.58C339.324 225.58 345.05 218.515 345.05 209.8C345.05 201.085 339.324 194.02 332.26 194.02C325.196 194.02 319.47 201.085 319.47 209.8C319.47 218.515 325.196 225.58 332.26 225.58Z" fill="url(#paint7_linear_4_2)"/>
<path d="M337.16 225.58C344.224 225.58 349.95 218.515 349.95 209.8C349.95 201.085 344.224 194.02 337.16 194.02C330.096 194.02 324.37 201.085 324.37 209.8C324.37 218.515 330.096 225.58 337.16 225.58Z" fill="#0EA5E9"/>
<path d="M337.16 225.58C344.224 225.58 349.95 218.515 349.95 209.8C349.95 201.085 344.224 194.02 337.16 194.02C330.096 194.02 324.37 201.085 324.37 209.8C324.37 218.515 330.096 225.58 337.16 225.58Z" fill="url(#paint8_linear_4_2)"/>
<path d="M329.88 195.03L323.24 160.48C319.4 146.06 309.49 135.25 297.3 132.11L294.49 131.39L299.7 131.02C312.78 130.09 324.8 139.73 329.27 154.73L338.35 194.16L329.88 195.02V195.03Z" fill="#0EA5E9"/>
<path d="M329.88 195.03L323.24 160.48C319.4 146.06 309.49 135.25 297.3 132.11L294.49 131.39L299.7 131.02C312.78 130.09 324.8 139.73 329.27 154.73L338.35 194.16L329.88 195.02V195.03Z" fill="url(#paint9_linear_4_2)"/>
<path d="M300.54 311.28C306.77 304.7 311.35 296.76 315.89 288.9C318.64 284.1 321.47 279.1 321.85 273.55C321.94 272.92 321.85 272.28 321.57 271.71C321.29 271.32 320.93 270.99 320.52 270.75L311.96 264.89C311.81 270.15 308.03 274.67 303.72 277.68C299.13 280.92 286.11 284.46 288.88 291.18C289.56 292.97 299.81 312.09 300.54 311.28Z" fill="#0EA5E9"/>
<path d="M277.37 272.33C275.6 274.88 274.35 277.75 273.67 280.77C271.52 289.28 271.93 298.2 272.39 306.96C272.39 307.5 272.53 308.15 273.03 308.32C273.31 308.39 273.61 308.35 273.86 308.22C275.82 307.18 277.42 305.58 278.47 303.63C281.61 298.85 284.48 293.91 287.08 288.81C287.39 288.3 287.57 287.73 287.62 287.13C287.46 286.18 286.98 285.31 286.26 284.66C283.41 281.21 283.23 276.98 283.76 272.62C283.93 271.26 285.26 268.78 283.49 268.14C282.03 267.6 278.04 271.4 277.36 272.32L277.37 272.33Z" fill="#0EA5E9"/>
<path d="M364.33 357.85C361.08 359.97 356.59 358.77 352.99 358.67C348.36 358.53 346.4 358.93 347.42 363.6C349.98 375.26 352.73 386.63 357.21 397.76C358.85 402.22 361.09 406.43 363.88 410.29C366.04 413.35 369.13 415.63 372.68 416.8C377.27 418.08 382.26 416.45 386.13 413.67C390 410.89 392.91 407.03 395.76 403.22C406 389.54 408.55 373.43 415.05 357.52C421.72 340.99 430.8 324.69 433.53 307.2C434.2 302.99 434.63 298.06 431.6 295.06C428.57 292.05 422.84 292.74 419.41 295.61C415.98 298.48 414.19 302.78 412.46 306.9C404.69 325.43 395.97 343.54 387.24 361.64C387.02 362.3 386.57 362.86 385.96 363.2C385.3 363.38 384.59 363.23 384.04 362.82C380.83 360.76 379.84 355.99 376.07 354.5C372.03 352.93 367.6 355.74 364.32 357.88L364.33 357.85Z" fill="#FFAA71"/>
<path d="M383.85 365.61C371.52 368.58 357.84 371.38 346.74 365.3C344.84 364.39 343.24 362.97 342.11 361.19C340.83 358.93 340.83 356.17 340.75 353.51C340.21 341.5 335.63 330.01 334.54 318.03C332.89 299.17 325.66 270.1 350.71 281.17C364.55 287.29 379.18 316.68 382.15 329C382.98 332.66 388.3 364.54 383.84 365.61H383.85Z" fill="#0EA5E9"/>
<path d="M383.85 365.61C371.52 368.58 357.84 371.38 346.74 365.3C344.84 364.39 343.24 362.97 342.11 361.19C340.83 358.93 340.83 356.17 340.75 353.51C340.21 341.5 335.63 330.01 334.54 318.03C332.89 299.17 325.66 270.1 350.71 281.17C364.55 287.29 379.18 316.68 382.15 329C382.98 332.66 388.3 364.54 383.84 365.61H383.85Z" fill="url(#paint10_linear_4_2)"/>
<path d="M411.35 280.68C408.28 283.67 406.47 287.73 406.32 292.02C406.08 295.99 406.92 299.98 406.32 303.91C405.87 307.02 404.55 310.08 405.04 313.19C405.14 314.14 405.53 315.04 406.17 315.75C406.91 316.39 407.78 316.86 408.73 317.11C413.02 318.58 417.46 320 421.99 319.81C426.52 319.62 431.23 317.48 433.3 313.41C434.41 310.78 434.94 307.94 434.85 305.09L435.14 297.31C435.46 293.8 435.23 290.27 434.45 286.83C433.62 283.35 431.21 280.47 427.94 279.04C422.66 277.15 415.77 276.7 411.36 280.69L411.35 280.68Z" fill="#FFAA71"/>
<path d="M307.27 251.12C302.12 251.01 297.01 250.15 292.11 248.56C290.87 248.32 290.05 247.13 290.29 245.88C290.53 244.64 291.72 243.82 292.97 244.06C293.12 244.09 293.26 244.13 293.4 244.18C305.13 247.71 313.97 247.24 319.66 242.79C327.34 236.76 326.85 225.27 326.85 225.16C326.78 223.9 327.74 222.83 328.99 222.76C328.99 222.76 329 222.76 329.01 222.76C330.27 222.7 331.33 223.67 331.4 224.92C331.4 225.5 332.01 238.92 322.44 246.39C318.51 249.56 313.42 251.12 307.28 251.12H307.27Z" fill="url(#paint11_linear_4_2)"/>
<path d="M293.3 240.43C294.61 241.08 295.63 242.19 296.18 243.54C296.69 245.48 295.18 247.38 293.62 248.66C292.29 249.86 290.66 250.67 288.9 250.99C286.34 251.3 283.86 249.92 281.72 248.43C280.52 247.71 279.5 246.72 278.73 245.55C276.75 242.06 279.31 237.59 282.68 236.09C286.39 234.31 290.37 238.43 293.3 240.43Z" fill="url(#paint12_linear_4_2)"/>
<path d="M337.93 415.11H153.65C148.486 415.11 144.3 419.296 144.3 424.46V424.48C144.3 429.644 148.486 433.83 153.65 433.83H337.93C343.094 433.83 347.28 429.644 347.28 424.48V424.46C347.28 419.296 343.094 415.11 337.93 415.11Z" fill="#0EA5E9"/>
<path d="M337.93 415.11H153.65C148.486 415.11 144.3 419.296 144.3 424.46V424.48C144.3 429.644 148.486 433.83 153.65 433.83H337.93C343.094 433.83 347.28 429.644 347.28 424.48V424.46C347.28 419.296 343.094 415.11 337.93 415.11Z" fill="url(#paint13_linear_4_2)"/>
<path d="M274.04 433.84H132.62L95.32 339.25C93.64 334.98 95.74 330.15 100.01 328.47C100.96 328.1 101.97 327.9 102.99 327.89H214.02C225.02 327.89 234.9 334.61 238.93 344.84L274.03 433.84H274.04Z" fill="#0EA5E9"/>
<path d="M266.88 433.95H132.53L97.11 344.08C95.51 340.03 97.49 335.45 101.53 333.85C102.46 333.48 103.45 333.29 104.45 333.3H209.86C220.3 333.3 229.68 339.68 233.52 349.4L266.88 433.96V433.95Z" fill="#0EA5E9"/>
<path d="M266.88 433.95H132.53L97.11 344.08C95.51 340.03 97.49 335.45 101.53 333.85C102.46 333.48 103.45 333.29 104.45 333.3H209.86C220.3 333.3 229.68 339.68 233.52 349.4L266.88 433.96V433.95Z" fill="url(#paint14_linear_4_2)"/>
<defs>
<linearGradient id="paint0_linear_4_2" x1="211.16" y1="276.53" x2="280.23" y2="352.11" gradientUnits="userSpaceOnUse">
<stop/>
<stop offset="0.12" stop-opacity="0.75"/>
<stop offset="1" stop-opacity="0"/>
</linearGradient>
<linearGradient id="paint1_linear_4_2" x1="301.05" y1="199.64" x2="293.33" y2="347.32" gradientUnits="userSpaceOnUse">
<stop/>
<stop offset="0.09" stop-opacity="0.82"/>
<stop offset="1" stop-opacity="0"/>
</linearGradient>
<linearGradient id="paint2_linear_4_2" x1="318.74" y1="242.8" x2="303.76" y2="401.79" gradientUnits="userSpaceOnUse">
<stop/>
<stop offset="0.12" stop-opacity="0.75"/>
<stop offset="1" stop-opacity="0"/>
</linearGradient>
<linearGradient id="paint3_linear_4_2" x1="515.61" y1="387.03" x2="300.59" y2="364.88" gradientUnits="userSpaceOnUse">
<stop/>
<stop offset="0.12" stop-opacity="0.75"/>
<stop offset="1" stop-opacity="0"/>
</linearGradient>
<linearGradient id="paint4_linear_4_2" x1="289.63" y1="244.02" x2="309.15" y2="280.07" gradientUnits="userSpaceOnUse">
<stop/>
<stop offset="0.09" stop-opacity="0.82"/>
<stop offset="1" stop-opacity="0"/>
</linearGradient>
<linearGradient id="paint5_linear_4_2" x1="242.41" y1="201.93" x2="262.68" y2="216.09" gradientUnits="userSpaceOnUse">
<stop/>
<stop offset="0.09" stop-opacity="0.82"/>
<stop offset="1" stop-opacity="0"/>
</linearGradient>
<linearGradient id="paint6_linear_4_2" x1="271.81" y1="194.42" x2="234.47" y2="237.87" gradientUnits="userSpaceOnUse">
<stop/>
<stop offset="0.09" stop-opacity="0.82"/>
<stop offset="1" stop-opacity="0"/>
</linearGradient>
<linearGradient id="paint7_linear_4_2" x1="335.93" y1="204.01" x2="319.95" y2="229.23" gradientUnits="userSpaceOnUse">
<stop/>
<stop offset="0.09" stop-opacity="0.82"/>
<stop offset="1" stop-opacity="0"/>
</linearGradient>
<linearGradient id="paint8_linear_4_2" x1="356.06" y1="198.44" x2="268.84" y2="250.9" gradientUnits="userSpaceOnUse">
<stop/>
<stop offset="0.09" stop-opacity="0.82"/>
<stop offset="1" stop-opacity="0"/>
</linearGradient>
<linearGradient id="paint9_linear_4_2" x1="342" y1="160.63" x2="286.33" y2="165.45" gradientUnits="userSpaceOnUse">
<stop/>
<stop offset="0.09" stop-opacity="0.82"/>
<stop offset="1" stop-opacity="0"/>
</linearGradient>
<linearGradient id="paint10_linear_4_2" x1="348.63" y1="238.47" x2="365.57" y2="382.47" gradientUnits="userSpaceOnUse">
<stop/>
<stop offset="0.12" stop-opacity="0.75"/>
<stop offset="1" stop-opacity="0"/>
</linearGradient>
<linearGradient id="paint11_linear_4_2" x1="305.33" y1="224.39" x2="317.07" y2="248.53" gradientUnits="userSpaceOnUse">
<stop offset="0.02" stop-color="white" stop-opacity="0"/>
<stop offset="0.58" stop-color="white" stop-opacity="0.39"/>
<stop offset="0.68" stop-color="white" stop-opacity="0.68"/>
<stop offset="1" stop-color="white"/>
</linearGradient>
<linearGradient id="paint12_linear_4_2" x1="292.94" y1="231.63" x2="278.78" y2="260.17" gradientUnits="userSpaceOnUse">
<stop/>
<stop offset="1" stop-opacity="0"/>
</linearGradient>
<linearGradient id="paint13_linear_4_2" x1="246.19" y1="442.64" x2="245.33" y2="403.59" gradientUnits="userSpaceOnUse">
<stop/>
<stop offset="0.12" stop-opacity="0.75"/>
<stop offset="1" stop-opacity="0"/>
</linearGradient>
<linearGradient id="paint14_linear_4_2" x1="184.84" y1="466.74" x2="179.05" y2="320" gradientUnits="userSpaceOnUse">
<stop/>
<stop offset="0.12" stop-opacity="0.75"/>
<stop offset="1" stop-opacity="0"/>
</linearGradient>
</defs>
</svg>
