<svg width="480" height="436" viewBox="0 0 480 436" fill="none" xmlns="http://www.w3.org/2000/svg">
<path d="M199.971 118.938C183.225 128.565 141.896 152.525 129.444 159.536C127.297 160.791 126.009 162.989 126.009 165.395V331.028C125.794 334.377 129.658 337.516 132.879 335.737L202.44 297.127C205.231 295.558 207.056 293.361 207.056 290.222V122.914C207.056 120.403 204.909 118.311 202.333 118.311C201.474 118.311 200.615 118.52 199.971 118.938Z" fill="#0EA5E9"/>
<g opacity="0.46">
<path d="M199.971 118.938C183.225 128.565 141.896 152.525 129.444 159.536C127.297 160.791 126.009 162.989 126.009 165.395V331.028C125.794 334.377 129.658 337.516 132.879 335.737L202.44 297.127C205.231 295.558 207.056 293.361 207.056 290.222V122.914C207.056 120.403 204.909 118.311 202.333 118.311C201.474 118.311 200.615 118.52 199.971 118.938Z" fill="#606060"/>
</g>
<path d="M193.913 199.542C199.405 181.599 193.817 164.135 181.431 160.533C169.046 156.931 154.553 168.557 149.061 186.499C143.57 204.441 149.158 221.906 161.544 225.508C173.929 229.109 188.422 217.484 193.913 199.542Z" fill="white"/>
<path d="M182.686 187.735C184.527 179.669 181.703 172.195 176.379 171.041C171.055 169.886 165.247 175.49 163.406 183.556C161.566 191.622 164.389 199.096 169.713 200.25C175.037 201.405 180.845 195.801 182.686 187.735Z" fill="#124577"/>
<path d="M154.992 221.792C154.992 221.792 159.501 207.562 173.027 202.644C187.089 197.517 190.095 206.62 190.095 206.62C190.095 206.62 187.304 220.432 173.027 225.664C158.75 230.895 154.992 221.792 154.992 221.792Z" fill="#124577"/>
<path d="M262.233 113.288C245.487 122.914 204.158 146.875 191.705 153.886C189.558 155.141 188.27 157.339 188.27 159.745V325.378C188.055 328.726 191.92 331.865 195.14 330.087L264.702 291.477C267.493 289.908 269.318 287.711 269.318 284.572V117.264C269.318 114.753 267.278 112.661 264.702 112.661C263.843 112.661 262.984 112.87 262.233 113.288Z" fill="#0EA5E9"/>
<g opacity="0.25">
<path d="M262.233 113.288C245.487 122.914 204.158 146.875 191.705 153.886C189.558 155.141 188.27 157.339 188.27 159.745V325.378C188.055 328.726 191.92 331.865 195.14 330.087L264.702 291.477C267.493 289.908 269.318 287.711 269.318 284.572V117.264C269.318 114.753 267.278 112.661 264.702 112.661C263.843 112.661 262.984 112.87 262.233 113.288Z" fill="#606060"/>
</g>
<path d="M257.919 186.463C263.411 168.521 257.823 151.056 245.437 147.455C233.052 143.853 218.559 155.479 213.067 173.421C207.576 191.363 213.164 208.828 225.55 212.429C237.935 216.031 252.428 204.406 257.919 186.463Z" fill="white"/>
<path d="M246.771 174.678C248.611 166.612 245.787 159.138 240.463 157.984C235.139 156.829 229.331 162.433 227.491 170.499C225.65 178.565 228.474 186.039 233.798 187.193C239.122 188.347 244.93 182.744 246.771 174.678Z" fill="#124577"/>
<path d="M219.079 208.818C219.079 208.818 223.48 194.588 237.114 189.67C251.176 184.543 254.182 193.646 254.182 193.646C254.182 193.646 251.391 207.458 237.114 212.689C222.836 217.921 219.079 208.818 219.079 208.818Z" fill="#124577"/>
<path d="M318.269 100.732C301.522 110.359 260.193 134.319 247.741 141.33C245.594 142.585 244.306 144.783 244.306 147.189V312.822C244.091 316.171 247.956 319.31 251.176 317.531L320.738 278.921C323.529 277.352 325.354 275.155 325.354 272.016V104.604C325.354 102.093 323.207 100 320.63 100C319.771 100 319.02 100.314 318.269 100.732Z" fill="#0EA5E9"/>
<path d="M314.149 180.266C319.641 162.324 314.052 144.859 301.667 141.257C289.281 137.656 274.789 149.281 269.297 167.223C263.805 185.166 269.394 202.63 281.779 206.232C294.165 209.834 308.657 198.208 314.149 180.266Z" fill="white"/>
<path d="M302.91 168.446C304.75 160.38 301.927 152.905 296.603 151.751C291.278 150.597 285.47 156.2 283.63 164.266C281.789 172.332 284.613 179.807 289.937 180.961C295.261 182.115 301.069 176.512 302.91 168.446Z" fill="#124577"/>
<path d="M275.222 202.54C275.222 202.54 279.623 188.31 293.256 183.392C307.319 178.37 310.325 187.368 310.325 187.368C310.325 187.368 307.534 201.18 293.256 206.411C278.979 211.643 275.222 202.54 275.222 202.54Z" fill="#124577"/>
<path d="M256.758 236.65V247.532C256.758 249.52 258.368 251.089 260.408 251.089C260.945 251.089 261.374 250.985 261.804 250.775L315.907 228.07C317.195 227.547 318.054 226.187 318.054 224.827V214.363C318.054 212.375 316.444 210.806 314.404 210.806C313.867 210.806 313.438 210.91 313.008 211.12L259.012 233.406C257.617 233.93 256.758 235.29 256.758 236.65Z" fill="white"/>
<path d="M256.865 263.122V274.004C256.865 275.992 258.476 277.561 260.515 277.561C261.052 277.561 261.481 277.457 261.911 277.247L316.014 254.542C317.302 254.019 318.161 252.659 318.161 251.299V240.835C318.161 238.847 316.444 237.382 314.511 237.382C314.082 237.382 313.652 237.487 313.223 237.592L259.012 259.983C257.724 260.506 256.865 261.762 256.865 263.122Z" fill="white"/>
<path d="M314.379 215.118L259.302 236.701L259.782 237.866L314.859 216.283L314.379 215.118Z" fill="#F25555"/>
<path d="M314.782 219.531L259.705 241.113L260.185 242.278L315.263 220.695L314.782 219.531Z" fill="#F25555"/>
<path d="M371.191 364.825C371.191 365.139 363.891 379.892 362.388 380.729C360.885 381.566 356.27 378.532 354.659 380.101C353.049 381.671 350.795 385.123 354.337 386.693C357.88 388.262 368.185 390.041 370.117 389.309C371.942 388.367 373.767 387.321 375.377 386.065C375.377 386.065 376.666 378.113 377.739 379.264C378.813 380.415 378.061 388.995 378.813 389.309C379.886 389.413 380.852 389.309 381.926 388.995L381.818 363.674" fill="#FF6161"/>
<path d="M354.659 385.333C354.659 385.542 349.292 397.575 348.004 398.307C346.716 399.04 343.066 396.738 341.778 398.098C340.489 399.458 338.879 402.283 341.67 403.434C344.461 404.585 352.942 405.736 354.445 405.108C355.948 404.376 357.343 403.434 358.631 402.388C358.631 402.388 359.383 396.005 360.349 396.842C361.315 397.679 360.885 404.69 361.53 404.794C362.388 404.794 363.247 404.69 363.999 404.48L363.14 384.182" fill="#FF6161"/>
<path d="M345.535 248.473C345.535 248.473 324.065 355.408 325.89 380.31C325.89 380.31 330.184 396.842 367.004 391.297C367.004 391.297 370.225 378.845 368.722 357.814C367.219 336.783 363.354 248.473 363.354 248.473H345.535Z" fill="#0EA5E9"/>
<path d="M349.399 374.869L354.981 247.218L377.095 245.23C377.095 245.23 386.756 278.084 384.609 293.989C382.462 309.893 387.078 330.924 388.152 341.91C389.118 351.85 389.44 368.905 386.005 376.544C374.197 379.996 361.315 378.845 349.399 374.869Z" fill="#0EA5E9"/>
<path d="M368.507 385.228C370.225 377.276 371.513 369.115 372.264 361.058C372.586 357.082 372.586 353.106 372.372 349.13C372.05 345.049 371.406 340.969 370.547 336.888C369.259 329.668 368.937 322.239 369.581 314.915C370.117 307.382 371.298 299.953 372.05 292.419C372.908 283.944 373.123 275.364 371.191 267.098C370.976 266.052 372.694 265.529 372.908 266.679C376.344 281.642 373.016 296.918 371.62 311.881C370.761 319.624 370.869 327.471 372.05 335.214C372.694 338.981 373.445 342.747 373.875 346.514C374.304 350.595 374.411 354.675 374.197 358.756C373.767 367.859 372.05 376.857 370.332 385.751C370.01 386.798 368.292 386.379 368.507 385.228Z" fill="white"/>
<path d="M321.596 223.152L329.111 220.013L322.562 181.195L301.093 191.03L303.562 209.236L306.782 227.965L321.596 223.152L319.235 220.223Z" fill="#124577"/>
<path d="M360.134 192.809C357.987 193.541 348.97 193.541 346.071 201.807C344.032 207.981 342.314 214.154 340.811 220.537L319.02 208.504C319.02 208.504 317.732 227.233 320.308 231.942C322.884 236.65 335.551 247.113 345.964 241.149C345.964 241.149 344.998 248.473 345.964 250.671C346.93 252.868 370.869 255.588 376.451 248.578C382.033 241.568 378.168 208.504 378.168 208.504" fill="#FF6161"/>
<path d="M319.342 217.816C319.664 215.096 319.771 212.48 320.093 209.759C319.342 209.236 318.698 208.504 318.054 207.876C317.302 207.144 316.551 206.307 315.907 205.47C315.477 204.528 314.941 203.691 314.511 202.854L313.974 201.807C313.33 200.447 312.686 198.25 311.076 197.622C310.003 197.204 308.714 197.727 308.285 198.773C308.178 198.878 308.178 199.087 308.178 199.192C307.856 201.598 312.15 206.725 307.104 206.62C306.138 206.62 305.279 206.62 304.313 206.725C302.381 206.934 300.663 207.876 301.415 209.969C301.522 210.283 301.629 210.596 301.844 210.806C300.556 211.224 299.805 212.689 300.234 213.945C300.234 214.049 300.234 214.049 300.341 214.154C300.663 214.886 301.2 215.41 301.952 215.723C301.415 216.351 301.307 217.293 301.844 218.025C302.274 218.549 302.918 218.967 303.562 219.072C303.562 219.386 303.562 219.804 303.669 220.118C304.313 221.792 306.567 222.315 308.07 222.629C311.613 223.048 315.155 223.152 318.698 222.943C318.805 221.06 319.127 219.386 319.342 217.816Z" fill="#F7931E"/>
<path opacity="0.7" d="M354.23 218.862C354.23 223.152 353.479 227.338 352.19 231.523C351.117 235.29 348.648 238.533 345.213 240.521C344.569 240.94 345.105 241.986 345.857 241.568C349.292 239.58 351.868 236.441 353.049 232.779C354.552 228.279 355.411 223.676 355.411 218.967C355.411 218.653 355.089 218.444 354.659 218.444C354.552 218.339 354.337 218.549 354.23 218.862Z" fill="#124577"/>
<path d="M370.654 190.612C368.293 190.402 324.28 162.675 322.884 163.826C321.489 164.977 316.551 179.625 323.099 184.857C329.647 190.089 368.722 211.329 368.722 211.329" fill="#F25555"/>
<path d="M303.347 165.291C301.844 167.802 302.918 170.418 304.528 172.824C304.743 172.72 304.957 172.72 305.172 172.824C307.104 173.452 309.036 173.871 311.076 174.184C312.686 174.498 314.297 174.708 315.907 174.812C317.517 174.917 319.127 175.335 320.63 175.963C320.63 173.243 320.845 170.627 321.274 167.906C314.941 164.977 309.788 162.989 304.098 159.117C303.454 158.699 301.952 157.234 301.307 157.443C300.556 157.548 300.019 158.176 300.019 158.908C300.019 159.013 300.019 159.013 300.019 159.117C300.449 161.524 302.918 162.779 304.85 164.035C304.957 164.14 303.347 165.186 303.347 165.291Z" fill="#F7931E"/>
<path d="M304.85 167.069C305.279 166.546 304.313 166.023 303.884 166.546C303.562 166.965 303.347 167.488 303.132 168.011C302.81 168.744 302.596 169.476 302.703 170.313C302.703 170.418 302.703 170.627 302.81 170.836C302.81 170.941 302.81 170.941 302.918 171.045C303.025 171.464 303.24 171.778 303.562 171.987C304.206 172.301 304.742 171.569 304.957 171.15C305.279 170.418 305.387 169.685 305.387 168.848C305.387 168.22 305.494 167.488 304.957 167.174L304.85 167.069Z" fill="#F7931E"/>
<path d="M319.557 174.917C318.054 174.08 316.336 173.661 314.619 173.766C312.257 173.871 309.895 174.498 308.285 172.196C307.319 170.836 307.319 169.267 306.031 168.22C305.709 168.011 305.387 167.802 305.065 167.593C304.85 167.383 304.528 167.279 304.42 167.174C303.991 167.069 303.669 166.756 303.562 166.337C303.454 165.709 303.776 165.186 304.313 164.977C304.42 164.977 304.528 164.977 304.635 164.977C305.065 164.977 305.494 165.186 305.923 165.395C305.923 165.395 306.031 165.395 306.031 165.5C306.782 165.709 307.534 166.023 308.285 166.337C309.036 166.651 309.358 165.709 308.822 165.395C307.319 164.767 304.098 162.989 302.703 164.767C302.274 165.186 302.166 165.814 302.381 166.442C302.059 167.383 301.844 168.43 301.737 169.371C301.522 170.104 301.629 170.836 301.844 171.569C302.274 172.406 303.132 172.824 304.098 172.72C304.206 172.929 304.206 173.138 304.313 173.347C305.065 174.394 306.46 174.603 307.641 173.975C307.856 173.871 307.963 173.766 307.856 173.557C308.392 174.08 309.036 174.498 309.788 174.812C311.076 175.126 312.364 175.231 313.652 175.021C315.477 174.812 317.302 175.231 318.912 176.068C319.234 176.172 319.557 176.068 319.664 175.859C319.771 175.649 319.879 175.021 319.557 174.917ZM304.098 171.464C303.562 171.883 302.918 170.732 302.81 170.522C302.81 169.999 302.81 169.476 302.918 168.953C303.025 168.43 303.132 167.906 303.24 167.383C303.669 167.697 304.098 168.011 304.528 168.325C304.313 169.371 304.098 170.418 304.098 171.464ZM307.212 173.033C305.816 173.661 305.172 172.51 305.279 171.255C305.279 170.522 305.387 169.79 305.494 169.057L305.709 169.267C306.675 170.313 306.675 171.778 307.534 172.929C307.426 172.929 307.319 172.929 307.212 173.033Z" fill="#42210B"/>
<path d="M347.36 166.546C345.964 167.383 346.071 188.31 352.19 190.926C360.241 194.274 366.575 185.066 367.326 180.148C368.078 175.231 363.14 156.815 347.36 166.546Z" fill="#F7931E"/>
<path d="M389.547 200.343C388.581 199.505 387.293 198.668 386.756 197.517C386.327 196.157 386.112 194.692 386.219 193.228C386.005 189.67 385.039 185.903 381.711 184.02C379.564 182.764 376.558 183.915 374.733 181.927C372.694 179.73 373.338 176.591 373.123 173.975C371.728 160.268 351.009 157.757 344.354 168.953C342.1 172.615 343.173 177.323 346.823 179.73C347.789 180.358 348.97 180.776 350.151 180.985C351.868 181.299 353.586 181.195 354.337 183.078C355.411 185.799 353.371 188.624 352.405 191.03C350.795 194.797 350.365 200.133 354.122 202.854C355.84 204.109 358.094 204.423 360.134 205.051C360.993 205.26 361.852 205.679 362.496 206.307C363.462 207.562 362.818 209.236 362.603 210.596C362.496 211.329 362.496 212.061 362.603 212.794C362.388 214.154 362.818 215.619 363.784 216.665C366.038 219.281 370.225 219.386 373.445 219.281C377.202 219.072 380.959 218.235 384.395 216.665C387.4 215.305 391.265 213.212 392.768 210.283C394.593 206.516 392.446 202.749 389.547 200.343Z" fill="#42210B"/>
<path opacity="0.18" d="M479.989 304.56C479.909 320.291 474.267 335.5 466.956 349.456C451.486 378.842 426.638 403.997 397.366 419.036L400.422 418.344C352.524 453.816 269.95 424.3 210.537 427.649C176.621 429.563 142.705 434.256 108.818 432.02C74.9321 429.784 57.8841 445.645 33.206 422.204C1.00755 391.575 -7.16191 341.826 6.04105 299.096C9.28686 288.478 13.9009 278.332 19.7733 268.928C24.3574 261.729 29.4408 254.871 34.9937 248.405C58.1638 221.104 87.7556 198.736 106.072 167.856C124.718 136.415 130.211 98.4968 148.817 67.0253C187.247 2.02714 270.879 -19.3883 335.626 19.1916C343.565 23.9238 350.996 29.4481 357.827 35.6842C368.243 45.2189 377.182 56.4279 382.195 69.592C387.579 83.6985 388.138 99.1585 392.532 113.596C398.924 134.63 413.056 152.246 424.86 170.784C441.059 196.22 453.174 224.022 465.228 251.683C472.589 268.567 480.089 286.102 479.999 304.57L479.989 304.56Z" fill="#0EA5E9"/>
</svg>
